<?xml version="1.0" encoding="iso-8859-1"?>
<!-- Generator: Adobe Illustrator 19.0.0, SVG Export Plug-In . SVG Version: 6.00 Build 0)  -->
<svg version="1.1" id="Layer_1" xmlns="http://www.w3.org/2000/svg" xmlns:xlink="http://www.w3.org/1999/xlink" x="0px" y="0px"
	 viewBox="0 0 512 512" style="enable-background:new 0 0 512 512;" xml:space="preserve">
<rect x="254.97" y="307.957" style="fill:#CC9758;" width="40.558" height="195.175"/>
<g>
	<rect x="254.97" y="307.957" style="fill:#B78046;" width="17.226" height="195.175"/>
	<rect x="254.97" y="307.957" style="fill:#B78046;" width="40.558" height="44.259"/>
</g>
<rect x="254.97" y="8.868" style="fill:#CC9758;" width="40.558" height="32.955"/>
<rect x="254.97" y="148.279" style="fill:#B78046;" width="40.558" height="53.222"/>
<g>
	<polyline style="fill:#CEBE9B;" points="237.464,34.33 280.881,40.271 321.066,45.768 375.266,53.184 418.275,112.787 
		360.835,158.657 306.634,151.241 266.451,145.744 151.726,130.047 166.158,24.574 206.419,30.083 	"/>
	<polyline style="fill:#CEBE9B;" points="388.835,205.733 387.129,187.651 290.288,196.794 249.91,200.605 139.188,211.058 
		93.724,268.82 149.192,317.043 259.914,306.59 300.294,302.778 397.134,293.636 391.447,233.397 	"/>
</g>
<path d="M425.466,107.597l-43.009-59.602c-1.42-1.969-3.585-3.268-5.989-3.597l-72.076-9.862V8.868c0-4.898-3.971-8.868-8.868-8.868
	h-40.558c-4.898,0-8.868,3.971-8.868,8.868V26.56l-7.43-1.017c-4.852-0.666-9.325,2.731-9.988,7.584
	c-0.665,4.853,2.731,9.325,7.584,9.988l134.035,18.34l35.844,49.671l-47.87,38.229l-196.556-26.892l12.027-87.901l31.476,4.306
	c4.853,0.666,9.325-2.731,9.988-7.584c0.665-4.853-2.731-9.325-7.584-9.988l-40.261-5.509c-2.328-0.32-4.692,0.3-6.565,1.724
	c-1.873,1.422-3.104,3.531-3.423,5.861l-14.431,105.473c-0.665,4.853,2.731,9.325,7.584,9.988l95.573,13.077v40.148l-107.743,10.171
	c-2.416,0.228-4.634,1.437-6.135,3.344l-45.464,57.763c-2.925,3.716-2.419,9.075,1.151,12.178l55.47,48.221
	c1.621,1.408,3.689,2.176,5.818,2.176c0.277,0,0.556-0.013,0.835-0.039l96.07-9.069v177.461h-83.646
	c-4.898,0-8.868,3.971-8.868,8.868c0,4.898,3.971,8.868,8.868,8.868h225.587c4.898,0,8.868-3.971,8.868-8.868
	c0-4.898-3.971-8.868-8.868-8.868h-83.646V336.726c0-4.898-3.971-8.868-8.868-8.868c-4.898,0-8.868,3.971-8.868,8.868v157.538
	h-22.821V315.127l134.135-12.663c2.341-0.221,4.499-1.363,5.999-3.176c1.499-1.812,2.217-4.146,1.996-6.487l-5.688-60.239
	c-0.461-4.876-4.781-8.456-9.663-7.996c-4.876,0.46-8.456,4.787-7.996,9.663l4.853,51.409l-235.328,22.216l-46.228-40.187
	l37.889-48.139l235.328-22.216l0.874,9.253c0.46,4.876,4.783,8.446,9.663,7.996c4.876-0.46,8.456-4.787,7.996-9.663l-1.707-18.082
	c-0.461-4.876-4.787-8.452-9.663-7.996l-81.903,7.732v-26.669l55.24,7.558c0.401,0.054,0.803,0.082,1.203,0.082
	c2,0,3.953-0.676,5.534-1.939l57.44-45.871C427.505,116.766,428.233,111.433,425.466,107.597z M263.834,17.737h22.821v14.373
	l-22.821-3.123V17.737z M286.655,188.229l-22.821,2.154v-36.047l22.821,3.123V188.229z"/>
<g>
</g>
<g>
</g>
<g>
</g>
<g>
</g>
<g>
</g>
<g>
</g>
<g>
</g>
<g>
</g>
<g>
</g>
<g>
</g>
<g>
</g>
<g>
</g>
<g>
</g>
<g>
</g>
<g>
</g>
</svg>
