<?xml version="1.0" encoding="iso-8859-1"?>
<!-- Generator: Adobe Illustrator 19.0.0, SVG Export Plug-In . SVG Version: 6.00 Build 0)  -->
<svg version="1.1" id="Layer_1" xmlns="http://www.w3.org/2000/svg" xmlns:xlink="http://www.w3.org/1999/xlink" x="0px" y="0px"
	 viewBox="0 0 512 512" style="enable-background:new 0 0 512 512;" xml:space="preserve">
<rect x="254.953" style="fill:#CC9758;" width="41.273" height="502.975"/>
<g>
	<rect x="254.953" y="304.36" style="fill:#B78046;" width="17.53" height="198.615"/>
	<rect x="254.953" y="277.876" style="fill:#B78046;" width="41.273" height="71.536"/>
</g>
<rect x="254.953" style="fill:#CC9758;" width="41.273" height="33.536"/>
<rect x="254.953" y="110.017" style="fill:#B78046;" width="41.273" height="117.862"/>
<g>
	<polyline style="fill:#CEBE9B;" points="237.138,25.91 281.321,31.956 322.213,37.55 377.369,45.097 421.136,105.75 
		362.684,152.429 307.527,144.882 266.636,139.288 149.889,123.314 164.575,15.982 205.546,21.588 	"/>
	<polyline style="fill:#CEBE9B;" points="391.179,200.335 389.441,181.934 290.893,191.238 249.803,195.116 137.129,205.753 
		90.864,264.534 147.31,313.606 259.984,302.969 301.075,299.09 399.622,289.787 393.836,228.487 	"/>
</g>
<path style="fill:#82B236;" d="M390.367,512H160.803c-4.984,0-9.025-4.041-9.025-9.025c0-4.984,4.041-9.025,9.025-9.025h229.564
	c4.984,0,9.025,4.041,9.025,9.025C399.391,507.959,395.351,512,390.367,512z"/>
<g>
</g>
<g>
</g>
<g>
</g>
<g>
</g>
<g>
</g>
<g>
</g>
<g>
</g>
<g>
</g>
<g>
</g>
<g>
</g>
<g>
</g>
<g>
</g>
<g>
</g>
<g>
</g>
<g>
</g>
</svg>
